# xmcd
#
# Track frame offsets:
#	150
#	14456
#	33073
#	44847
#	60074
#	75640
#	96445
#	113873
#	132350
#	149705
#	169302
#	186269
#	202578
#
# Disc length: 2942 seconds
#
# Revision: 0
# Processed by: cddbd v1.5.2PL0 Copyright (c) Steve Scherf et al.
# Submitted via: audiograbber 1.83.01
#
DISCID=b10b7c0d
DTITLE=Various Artist - Nu Country Traxx
DYEAR=1900
DGENRE=Country
TTITLE0=Aaron Tippin - What This Country Needs
TTITLE1=George Jones - Cold Hard Truth
TTITLE2=Brooks and Dunn - Beer Thirty
TTITLE3=SheDaisy - This Woman Needs
TTITLE4=Travis Tritt/George Thorogood - Move It On Over
TTITLE5=Barbra Streisand/Vince Gill - If You Ever Leave Me
TTITLE6=Phil Vassar - Carlene
TTITLE7=Dixie Chicks - Cowboy Take Me Away
TTITLE8=Charlie Robison - My Hometown
TTITLE9=Julian Austin - Back In Your Life
TTITLE10=Walkin' In The Sunshine - Farmer's Daughter
TTITLE11=Brahmas And Mustangs - Ian Tyson
TTITLE12=Shirley Myers - You Better Be Sure
EXTD=
EXTT0=
EXTT1=
EXTT2=
EXTT3=
EXTT4=
EXTT5=
EXTT6=
EXTT7=
EXTT8=
EXTT9=
EXTT10=
EXTT11=
EXTT12=
PLAYORDER=
